<mxfile host="app.diagrams.net" modified="2022-09-18T14:29:23.525Z" agent="5.0 (Windows NT 10.0; Win64; x64) AppleWebKit/537.36 (KHTML, like Gecko) Chrome/105.0.0.0 Safari/537.36" etag="3fjKifRhGeeV-K0-8eDX" version="20.3.2" type="github">
  <diagram id="YP-MlucsAYeQETlOywwn" name="Страница 1">
    <mxGraphModel dx="1673" dy="934" grid="1" gridSize="10" guides="1" tooltips="1" connect="1" arrows="1" fold="1" page="1" pageScale="1" pageWidth="827" pageHeight="1169" math="0" shadow="0">
      <root>
        <mxCell id="0" />
        <mxCell id="1" parent="0" />
        <mxCell id="xQz9ynv2339UHXqiRjpj-4" style="edgeStyle=orthogonalEdgeStyle;rounded=0;orthogonalLoop=1;jettySize=auto;html=1;exitX=0.5;exitY=1;exitDx=0;exitDy=0;entryX=0.5;entryY=0;entryDx=0;entryDy=0;" edge="1" parent="1" source="xQz9ynv2339UHXqiRjpj-1" target="xQz9ynv2339UHXqiRjpj-2">
          <mxGeometry relative="1" as="geometry" />
        </mxCell>
        <mxCell id="xQz9ynv2339UHXqiRjpj-1" value="start" style="rounded=1;whiteSpace=wrap;html=1;" vertex="1" parent="1">
          <mxGeometry x="330" y="20" width="120" height="60" as="geometry" />
        </mxCell>
        <mxCell id="xQz9ynv2339UHXqiRjpj-5" style="edgeStyle=orthogonalEdgeStyle;rounded=0;orthogonalLoop=1;jettySize=auto;html=1;exitX=0.5;exitY=1;exitDx=0;exitDy=0;entryX=0.5;entryY=0;entryDx=0;entryDy=0;" edge="1" parent="1" source="xQz9ynv2339UHXqiRjpj-2" target="xQz9ynv2339UHXqiRjpj-3">
          <mxGeometry relative="1" as="geometry" />
        </mxCell>
        <mxCell id="xQz9ynv2339UHXqiRjpj-2" value="string[] array&lt;br&gt;string line&lt;br&gt;var realSize = 0" style="shape=parallelogram;perimeter=parallelogramPerimeter;whiteSpace=wrap;html=1;fixedSize=1;" vertex="1" parent="1">
          <mxGeometry x="330" y="110" width="120" height="70" as="geometry" />
        </mxCell>
        <mxCell id="xQz9ynv2339UHXqiRjpj-8" style="edgeStyle=orthogonalEdgeStyle;rounded=0;orthogonalLoop=1;jettySize=auto;html=1;exitX=0.5;exitY=1;exitDx=0;exitDy=0;fontColor=#FFFFFF;" edge="1" parent="1" source="xQz9ynv2339UHXqiRjpj-3">
          <mxGeometry relative="1" as="geometry">
            <mxPoint x="390.11764705882354" y="390" as="targetPoint" />
          </mxGeometry>
        </mxCell>
        <mxCell id="xQz9ynv2339UHXqiRjpj-3" value="&lt;font color=&quot;#ffffff&quot;&gt;&lt;span style=&quot;box-sizing: border-box; font-family: ui-monospace, SFMono-Regular, &amp;quot;SF Mono&amp;quot;, Menlo, Consolas, &amp;quot;Liberation Mono&amp;quot;, monospace; text-align: start; background-color: rgb(13, 17, 23);&quot; class=&quot;pl-k&quot;&gt;string&lt;/span&gt;&lt;span style=&quot;font-family: ui-monospace, SFMono-Regular, &amp;quot;SF Mono&amp;quot;, Menlo, Consolas, &amp;quot;Liberation Mono&amp;quot;, monospace; text-align: start; background-color: rgb(13, 17, 23);&quot;&gt;[] &lt;/span&gt;&lt;span style=&quot;box-sizing: border-box; font-family: ui-monospace, SFMono-Regular, &amp;quot;SF Mono&amp;quot;, Menlo, Consolas, &amp;quot;Liberation Mono&amp;quot;, monospace; text-align: start; background-color: rgb(13, 17, 23);&quot; class=&quot;pl-en&quot;&gt;array&lt;/span&gt;&lt;span style=&quot;font-family: ui-monospace, SFMono-Regular, &amp;quot;SF Mono&amp;quot;, Menlo, Consolas, &amp;quot;Liberation Mono&amp;quot;, monospace; text-align: start; background-color: rgb(13, 17, 23);&quot;&gt;;&lt;/span&gt;&lt;/font&gt;" style="shape=hexagon;perimeter=hexagonPerimeter2;whiteSpace=wrap;html=1;fixedSize=1;" vertex="1" parent="1">
          <mxGeometry x="330" y="210" width="120" height="80" as="geometry" />
        </mxCell>
        <mxCell id="xQz9ynv2339UHXqiRjpj-10" value="&lt;span style=&quot;background-color: rgb(26, 26, 26);&quot;&gt;no&lt;/span&gt;" style="edgeStyle=orthogonalEdgeStyle;rounded=0;orthogonalLoop=1;jettySize=auto;html=1;exitX=0;exitY=0.5;exitDx=0;exitDy=0;entryX=0;entryY=0.75;entryDx=0;entryDy=0;fontColor=#FFFFFF;" edge="1" parent="1" source="xQz9ynv2339UHXqiRjpj-9" target="xQz9ynv2339UHXqiRjpj-3">
          <mxGeometry relative="1" as="geometry" />
        </mxCell>
        <mxCell id="xQz9ynv2339UHXqiRjpj-11" value="&lt;span style=&quot;background-color: rgb(255, 255, 255);&quot;&gt;yes&lt;/span&gt;" style="edgeStyle=orthogonalEdgeStyle;rounded=0;orthogonalLoop=1;jettySize=auto;html=1;exitX=0.5;exitY=1;exitDx=0;exitDy=0;labelBackgroundColor=#1A1A1A;fontColor=#1A1A1A;strokeColor=#000000;" edge="1" parent="1" source="xQz9ynv2339UHXqiRjpj-9">
          <mxGeometry relative="1" as="geometry">
            <mxPoint x="200" y="460" as="targetPoint" />
          </mxGeometry>
        </mxCell>
        <mxCell id="xQz9ynv2339UHXqiRjpj-9" value="&lt;span style=&quot;box-sizing: border-box; color: var(--color-prettylights-syntax-keyword); font-family: ui-monospace, SFMono-Regular, &amp;quot;SF Mono&amp;quot;, Menlo, Consolas, &amp;quot;Liberation Mono&amp;quot;, monospace; text-align: start; background-color: rgb(13, 17, 23);&quot; class=&quot;pl-k&quot;&gt;if&lt;/span&gt;&lt;span style=&quot;color: rgb(201, 209, 217); font-family: ui-monospace, SFMono-Regular, &amp;quot;SF Mono&amp;quot;, Menlo, Consolas, &amp;quot;Liberation Mono&amp;quot;, monospace; text-align: start; background-color: rgb(13, 17, 23);&quot;&gt; (&lt;/span&gt;&lt;span style=&quot;box-sizing: border-box; color: rgb(201, 209, 217); font-family: ui-monospace, SFMono-Regular, &amp;quot;SF Mono&amp;quot;, Menlo, Consolas, &amp;quot;Liberation Mono&amp;quot;, monospace; text-align: start; background-color: rgb(13, 17, 23);&quot; class=&quot;pl-smi&quot;&gt;value&lt;/span&gt;&lt;span style=&quot;color: rgb(201, 209, 217); font-family: ui-monospace, SFMono-Regular, &amp;quot;SF Mono&amp;quot;, Menlo, Consolas, &amp;quot;Liberation Mono&amp;quot;, monospace; text-align: start; background-color: rgb(13, 17, 23);&quot;&gt;.&lt;/span&gt;&lt;span style=&quot;box-sizing: border-box; color: rgb(201, 209, 217); font-family: ui-monospace, SFMono-Regular, &amp;quot;SF Mono&amp;quot;, Menlo, Consolas, &amp;quot;Liberation Mono&amp;quot;, monospace; text-align: start; background-color: rgb(13, 17, 23);&quot; class=&quot;pl-smi&quot;&gt;Length&lt;/span&gt;&lt;span style=&quot;color: rgb(201, 209, 217); font-family: ui-monospace, SFMono-Regular, &amp;quot;SF Mono&amp;quot;, Menlo, Consolas, &amp;quot;Liberation Mono&amp;quot;, monospace; text-align: start; background-color: rgb(13, 17, 23);&quot;&gt; &lt;/span&gt;&lt;span style=&quot;box-sizing: border-box; color: var(--color-prettylights-syntax-keyword); font-family: ui-monospace, SFMono-Regular, &amp;quot;SF Mono&amp;quot;, Menlo, Consolas, &amp;quot;Liberation Mono&amp;quot;, monospace; text-align: start; background-color: rgb(13, 17, 23);&quot; class=&quot;pl-k&quot;&gt;&amp;lt;=&lt;/span&gt;&lt;span style=&quot;color: rgb(201, 209, 217); font-family: ui-monospace, SFMono-Regular, &amp;quot;SF Mono&amp;quot;, Menlo, Consolas, &amp;quot;Liberation Mono&amp;quot;, monospace; text-align: start; background-color: rgb(13, 17, 23);&quot;&gt; &lt;/span&gt;&lt;span style=&quot;box-sizing: border-box; color: var(--color-prettylights-syntax-constant); font-family: ui-monospace, SFMono-Regular, &amp;quot;SF Mono&amp;quot;, Menlo, Consolas, &amp;quot;Liberation Mono&amp;quot;, monospace; text-align: start; background-color: rgb(13, 17, 23);&quot; class=&quot;pl-c1&quot;&gt;3&lt;/span&gt;&lt;span style=&quot;color: rgb(201, 209, 217); font-family: ui-monospace, SFMono-Regular, &amp;quot;SF Mono&amp;quot;, Menlo, Consolas, &amp;quot;Liberation Mono&amp;quot;, monospace; text-align: start; background-color: rgb(13, 17, 23);&quot;&gt;)&lt;/span&gt;" style="rhombus;whiteSpace=wrap;html=1;labelBackgroundColor=#FFFFFF;fontColor=#FFFFFF;" vertex="1" parent="1">
          <mxGeometry x="310" y="390" width="160" height="80" as="geometry" />
        </mxCell>
        <mxCell id="xQz9ynv2339UHXqiRjpj-13" style="edgeStyle=orthogonalEdgeStyle;rounded=0;orthogonalLoop=1;jettySize=auto;html=1;exitX=0.5;exitY=0;exitDx=0;exitDy=0;entryX=0;entryY=0.5;entryDx=0;entryDy=0;labelBackgroundColor=#FFFFFF;strokeColor=#000000;fontColor=#1A1A1A;" edge="1" parent="1" source="xQz9ynv2339UHXqiRjpj-12" target="xQz9ynv2339UHXqiRjpj-3">
          <mxGeometry relative="1" as="geometry" />
        </mxCell>
        <mxCell id="xQz9ynv2339UHXqiRjpj-12" value="result[reslSize] = value;&lt;br&gt;realSize++;" style="rounded=0;whiteSpace=wrap;html=1;labelBackgroundColor=#FFFFFF;fontColor=#1A1A1A;" vertex="1" parent="1">
          <mxGeometry x="80" y="400" width="120" height="90" as="geometry" />
        </mxCell>
      </root>
    </mxGraphModel>
  </diagram>
</mxfile>
